<svg xmlns="http://www.w3.org/2000/svg" viewBox="0 0 32 32" fill="none"
  stroke="#1c1a17" stroke-width="1" stroke-linecap="round" stroke-linejoin="round">
  <circle cx="16" cy="16" r="4" />
  <path d="M16 12 C17.5 8 16 4 16 4 C14.5 8 16 12 16 12" />
  <path d="M16 20 C17.5 24 16 28 16 28 C14.5 24 16 20 16 20" />
  <path d="M12 16 C8 14.5 4 16 4 16 C8 17.5 12 16 12 16" />
  <path d="M20 16 C24 14.5 28 16 28 16 C24 17.5 20 16 20 16" />
  <path d="M13 13 C10 9 6 8 6 8 C7 12 10 14 13 13" />
  <path d="M19 13 C22 9 26 8 26 8 C25 12 22 14 19 13" />
  <path d="M13 19 C10 23 6 24 6 24 C7 20 10 18 13 19" />
  <path d="M19 19 C22 23 26 24 26 24 C25 20 22 18 19 19" />
</svg>
